<svg xmlns="http://www.w3.org/2000/svg" id="Layer_1" x="0" y="0" version="1.1" viewBox="0 0 589.3 116" xml:space="preserve">
  <style>
    .st0{fill:#c12328}.st1{fill:#d9272e}
  </style>
  <path d="M535.4 54.4c2.5-1.7 5.3-2.6 8.4-2.6 3.1 0 5.9 1 8.4 2.6.2.1.5.2.7.3L581 6.8h-17l-19.8 35.6-19.8-35.6h-17l27.3 47.9c.2-.1.4-.2.7-.3z" class="st0"/>
  <path d="M557.6 66.9c-3-5.1-8.1-8.6-13.9-8.6-5.4 0-10.1 3-13.2 7.6L505.6 109l.1.2h16.7L544.2 71l21.7 38.2h17l-25.3-42.3z" class="st1"/>
  <path d="M418.3 24.4c-2.3-4.7-6.1-9-11.3-12.7-5.3-3.7-11.9-5.7-19.8-5.8-7.8.1-14.3 2-19.5 5.7-5.3 3.7-9.2 7.9-11.6 12.6-1.5 2.5-2.6 5.8-3.3 9.8-.7 4-1 12-1 24 0 11.7.3 19.6 1 23.8.4 2.2.8 4 1.4 5.5.6 1.4 1.2 2.9 2 4.4 2.4 4.7 6.3 8.9 11.6 12.5 5.2 3.8 11.7 5.7 19.5 5.9 7.9-.2 14.5-2.2 19.7-5.9 5.2-3.6 9-7.8 11.3-12.5 1.7-2.5 2.8-5.8 3.5-9.9.6-4.1.9-12 .9-23.8 0-11.9-.3-19.9-.9-23.9-.7-4-1.9-7.2-3.5-9.7zm-11.7 54.1c-.7 3.6-2.1 6.5-4 8.7-1.5 2.1-3.5 3.8-6 5.1-2.6 1.6-5.8 2.3-9.3 2.3s-6.6-.8-9.1-2.3c-2.6-1.3-4.7-3-6.3-5.1-2-2.2-3.3-5.1-3.9-8.7-.7-3.6-1.1-10.4-1.1-20.5s.4-17 1.1-20.6c.6-3.5 1.9-6.3 3.9-8.5 1.6-2.1 3.7-3.9 6.3-5.3 2.5-1.4 5.6-2.1 9.1-2.2 3.6.1 6.7.8 9.3 2.2 2.5 1.4 4.5 3.2 6 5.3 2 2.2 3.3 5.1 4 8.5.7 3.7 1 10.5 1 20.6s-.4 17-1 20.5zM321.6 56.6v-.3c2.9-1.4 5.3-3 7.2-4.7 2-1.6 3.4-3.4 4.5-5.2 2-3.8 3-7.9 2.9-12.1 0-8.2-2.5-14.9-7.4-19.9s-12.2-7.5-22-7.6h-38.5v28.9c.1 4.1 3.4 7.4 7.5 7.4s7.4-3.2 7.5-7.3V20.6H305c5.5.1 9.5 1.5 12.1 4.2 2.6 2.9 4 6.4 4 10.5s-1.3 7.6-4 10.3c-2.6 3-6.6 4.5-12.1 4.5h-21.7c-8.3 0-15 6.7-15 15v44.2h41.9c7.8 0 14.3-2.7 19.6-8.1 5.3-5.2 8-12.2 8-21 0-5.3-1.3-10.3-3.9-14.8-2.8-4.4-6.9-7.4-12.3-8.8zM318.8 90c-2.6 3.1-6.7 4.6-12.3 4.7h-23.2V63.8h23.2c5.6.1 9.7 1.6 12.3 4.6 2.6 3 3.9 6.6 3.9 10.9 0 4.1-1.3 7.7-3.9 10.7zM477.9 62.5c-3 3.2-7 5.1-11.3 5.1s-8.3-1.9-11.3-5l-27 46.7h17L467 71.1l21.7 38.2h16.8l.1-.2-27.7-46.6z" class="st0"/>
  <path d="M458.7 56.8c1.7 2.5 4.6 4.2 7.9 4.2s6.2-1.7 7.9-4.2l29.3-50h-17L467 42.3 447.2 6.8h-17l28.5 50zM154.9 24.4c-2.3-4.7-6.1-9-11.3-12.7-5.3-3.7-11.8-5.7-19.7-5.8-7.8.1-14.3 2-19.5 5.7-5.3 3.7-9.2 7.9-11.6 12.6-1.5 2.5-2.6 5.8-3.3 9.8-.7 4-1 12-1 24 0 11.7.3 19.6 1 23.8.4 2.2.8 4 1.4 5.5.6 1.4 1.2 2.9 2 4.4 2.4 4.7 6.3 8.9 11.6 12.5 5.2 3.8 11.7 5.7 19.5 5.9 7.9-.2 14.5-2.2 19.7-5.9 5.2-3.6 9-7.8 11.3-12.5 1.7-2.5 2.8-5.8 3.5-9.9.6-4.1.9-12 .9-23.8 0-11.9-.3-19.9-.9-23.9-.8-4-1.9-7.2-3.6-9.7zm-11.7 54.1c-.7 3.6-2.1 6.5-4 8.7-1.5 2.1-3.5 3.8-6 5.1-2.6 1.6-5.8 2.3-9.3 2.3s-6.6-.8-9.1-2.3c-2.6-1.3-4.7-3-6.3-5.1-2-2.2-3.3-5.1-3.9-8.7-.7-3.6-1.1-10.4-1.1-20.5s.4-17 1.1-20.6c.6-3.5 1.9-6.3 3.9-8.5 1.6-2.1 3.7-3.9 6.3-5.3 2.5-1.4 5.6-2.1 9.1-2.2 3.6.1 6.7.8 9.3 2.2 2.5 1.4 4.5 3.2 6 5.3 2 2.2 3.3 5.1 4 8.5.7 3.7 1 10.5 1 20.6s-.3 17-1 20.5zM65.8 14c-3.7-3-7.4-5.1-11-6-3.6-.7-7.4-1.1-11.3-1.1h-36v33.6c.1 4.1 3.4 7.4 7.5 7.4s7.4-3.2 7.5-7.3V21.4h21.8c4.1-.1 7.7.9 10.8 2.9 2 1.2 3.6 2.9 4.8 5 1.1 2.4 1.6 5.3 1.6 8.7 0 4.1-1.3 7.9-4 11.3-2.8 3.5-7 5.3-12.6 5.4H22.5c-8.3 0-15 6.7-15 15v39.6h15v-40h22.9c10.2-.2 18-3.6 23.3-10.1 5.2-6.2 7.8-13.1 7.8-20.7 0-5.6-1-10.5-3.1-14.6-2-4.4-4.5-7.6-7.6-9.9zM243.6 24.1c-6.7-11.4-16.8-17.2-30.2-17.3h-34.7v73.6c.1 4.1 3.4 7.4 7.5 7.4s7.4-3.2 7.5-7.3V21.4h18c7.6-.2 13.5 2.7 17.7 8.7 2 2.4 3.3 5.5 3.9 9.4.4 3.9.6 10.2.6 19.2 0 9.2-.2 15.4-.6 18.7-.5 3.4-1.5 6.2-3.2 8.4-3.8 6-10 8.9-18.4 8.9h-18c-8.2 0-14.8 6.5-15 14.6h33.7c7.4 0 13.7-1.7 18.9-5.1 5.2-3.1 9.2-7.1 12.1-12 1.1-1.8 2-3.6 2.8-5.3.7-1.7 1.3-3.7 1.6-5.9.8-4.4 1.2-12 1.2-23.1 0-10.4-.2-17.6-.7-21.9-.8-4-2.3-8.1-4.7-11.9z" class="st1"/>
</svg>
